<svg width="32" height="32" viewBox="0 0 32 32" fill="none" xmlns="http://www.w3.org/2000/svg">
  <rect width="32" height="32" rx="8" fill="#116DFF" opacity="0.1"/>
  <path d="M8 16C8 11.58 11.58 8 16 8C20.42 8 24 11.58 24 16C24 20.42 20.42 24 16 24C11.58 24 8 20.42 8 16Z" fill="#116DFF"/>
  <path d="M16 12L19.5 18H12.5L16 12Z" fill="white"/>
  <path d="M14 20C14.5523 20 15 19.5523 15 19C15 18.4477 14.5523 18 14 18C13.4477 18 13 18.4477 13 19C13 19.5523 13.4477 20 14 20Z" fill="white"/>
  <path d="M18 20C18.5523 20 19 19.5523 19 19C19 18.4477 18.5523 18 18 18C17.4477 18 17 18.4477 17 19C17 19.5523 17.4477 20 18 20Z" fill="white"/>
</svg>