<svg width="32" height="32" viewBox="0 0 32 32" fill="none" xmlns="http://www.w3.org/2000/svg">
  <rect width="32" height="32" rx="8" fill="#12B76A" opacity="0.1"/>
  <path d="M16 8C11.58 8 8 11.58 8 16C8 17.93 8.66 19.73 9.78 21.15L8 24L11.15 22.22C12.57 23.34 14.37 24 16 24C20.42 24 24 20.42 24 16C24 11.58 20.42 8 16 8Z" fill="#12B76A"/>
  <path d="M20.5 18.5C20.5 18.5 19.5 19.5 18.5 19.5C17.5 19.5 14.5 17.5 14.5 15.5C14.5 14.5 15.5 13.5 16 13C16.5 12.5 17 13 17 13C17 13 18 14 18 14.5C18 15 17 16 16.5 16.5C16 17 16.5 18 17.5 19C18.5 20 19.5 20.5 20.5 20.5" fill="white"/>
</svg>